<svg xmlns="http://www.w3.org/2000/svg" xmlns:xlink="http://www.w3.org/1999/xlink" width="165.287" height="89.682" viewBox="0 0 165.287 89.682">
  <defs>
    <style>
      .cls-1 {
        fill: #00a79d;
      }

      .cls-2 {
        fill: url(#linear-gradient);
      }

      .cls-3 {
        fill: url(#linear-gradient-2);
      }

      .cls-4 {
        fill: url(#linear-gradient-3);
      }
    </style>
    <linearGradient id="linear-gradient" y1="0.5" x2="4.066" y2="0.5" gradientUnits="objectBoundingBox">
      <stop offset="0" stop-color="#09233c"/>
      <stop offset="1" stop-color="#09233c"/>
    </linearGradient>
    <linearGradient id="linear-gradient-2" x1="0" y1="0.5" x2="4.066" y2="0.5" xlink:href="#linear-gradient"/>
    <linearGradient id="linear-gradient-3" x1="0.292" y1="0.5" x2="0.922" y2="0.5" gradientUnits="objectBoundingBox">
      <stop offset="0.23" stop-color="#09233c"/>
      <stop offset="0.438" stop-color="#11525f"/>
      <stop offset="0.62" stop-color="#077c7f"/>
      <stop offset="0.753" stop-color="#009a94"/>
      <stop offset="0.824" stop-color="#00a79d"/>
    </linearGradient>
  </defs>
  <g id="twf-logo" transform="translate(0 0)">
    <g id="Group_131" data-name="Group 131" transform="translate(15.476 77.123)">
      <path id="Path_504" data-name="Path 504" class="cls-1" d="M217.651,545.364h-2.114c-.125,0-.136-.075-.125-.186l.025-.186a.183.183,0,0,1,.175-.161h4.8a.131.131,0,0,1,.136.161l-.025.211a.189.189,0,0,1-.186.161h-2.114l-1.119,8.008a.2.2,0,0,1-.211.161h-.236a.137.137,0,0,1-.136-.161Z" transform="translate(-215.409 -544.707)"/>
      <path id="Path_505" data-name="Path 505" class="cls-1" d="M261.32,544.991a.187.187,0,0,1,.186-.161h.211a.137.137,0,0,1,.136.161l-.6,4.216a2.514,2.514,0,0,1,1.716-.77c1.083,0,1.68.8,1.467,2.275l-.373,2.661a.2.2,0,0,1-.186.161h-.225a.137.137,0,0,1-.136-.161l.373-2.661c.161-1.144-.211-1.753-1.008-1.753a2.568,2.568,0,0,0-1.716.883l-.5,3.533a.17.17,0,0,1-.186.161h-.236c-.086,0-.125-.075-.111-.161Z" transform="translate(-252.696 -544.707)"/>
      <path id="Path_506" data-name="Path 506" class="cls-1" d="M311.958,566.51a1.389,1.389,0,0,1,1.555,1.281c0,1.853-3.606,1.492-3.606,1.492-.1,1.069.461,1.941,1.43,1.941a2.5,2.5,0,0,0,1.356-.486c.111-.075.15-.062.2.025l.111.186a.136.136,0,0,1-.037.2,2.974,2.974,0,0,1-1.741.585,1.974,1.974,0,0,1-1.866-2.2A2.8,2.8,0,0,1,311.958,566.51Zm1.02,1.306c0-.436-.447-.783-1.083-.783a2.07,2.07,0,0,0-1.928,1.778C311.324,568.923,312.978,568.749,312.978,567.816Z" transform="translate(-293.734 -562.781)"/>
      <path id="Path_507" data-name="Path 507" class="cls-1" d="M391.373,544.374c-.012-.125.05-.161.161-.161h.3c.075,0,.111.062.125.136l.82,7.1h.025l2.986-7.25c.037-.075.062-.111.136-.111H396a.115.115,0,0,1,.125.111l.995,7.238h.025l2.8-7.089a.183.183,0,0,1,.161-.136h.323c.111,0,.161.037.125.161l-3.433,8.581a.131.131,0,0,1-.111.086h-.086c-.075,0-.1-.025-.111-.086l-1.02-7.4h-.025l-3.034,7.4c-.025.062-.05.086-.111.086h-.086c-.075,0-.111-.037-.111-.086Z" transform="translate(-362.105 -544.09)"/>
      <path id="Path_508" data-name="Path 508" class="cls-1" d="M463.29,571.456a.186.186,0,0,1-.175.161h-.136a.141.141,0,0,1-.15-.175l.025-.422a2.31,2.31,0,0,1-1.617.722c-1.02,0-1.728-.983-1.728-2.214a2.823,2.823,0,0,1,2.536-3.009,1.7,1.7,0,0,1,1.356.6l.1-.336a.17.17,0,0,1,.175-.136h.136a.137.137,0,0,1,.125.161Zm-.013-3.732a1.428,1.428,0,0,0-1.244-.684,2.2,2.2,0,0,0-1.978,2.413c0,.958.486,1.778,1.294,1.778a2.12,2.12,0,0,0,1.555-.895Z" transform="translate(-418.91 -562.789)"/>
      <path id="Path_509" data-name="Path 509" class="cls-1" d="M504.79,567.45c-.025-.1.012-.2.125-.2h.261a.142.142,0,0,1,.136.111l1.244,4.216h.025l2.314-4.216a.2.2,0,0,1,.175-.111h.274c.111,0,.15.1.086.2l-4.679,8.408a.2.2,0,0,1-.175.1h-.261c-.1,0-.15-.063-.086-.175l2-3.606Z" transform="translate(-456.168 -563.398)"/>
      <path id="Path_510" data-name="Path 510" class="cls-1" d="M588.694,544.991a.2.2,0,0,1,.175-.161h4.477a.137.137,0,0,1,.136.161l-.025.211a.2.2,0,0,1-.186.161h-4.03l-.536,3.781h3.533a.137.137,0,0,1,.136.161l-.025.211a.2.2,0,0,1-.186.161H588.63l-.536,3.694a.177.177,0,0,1-.186.161h-.261a.137.137,0,0,1-.136-.161Z" transform="translate(-525.62 -544.707)"/>
      <path id="Path_511" data-name="Path 511" class="cls-1" d="M641.028,566.51a2.085,2.085,0,0,1,1.9,2.25,2.844,2.844,0,0,1-2.636,2.972,2.087,2.087,0,0,1-1.914-2.25A2.844,2.844,0,0,1,641.028,566.51Zm-.672,4.714a2.28,2.28,0,0,0,2.014-2.413c0-.983-.572-1.778-1.417-1.778a2.277,2.277,0,0,0-2.027,2.4C638.926,570.427,639.5,571.224,640.356,571.224Z" transform="translate(-568.03 -562.781)"/>
      <path id="Path_512" data-name="Path 512" class="cls-1" d="M688.376,566.8a.2.2,0,0,1,.175-.161h.161a.129.129,0,0,1,.125.136l-.025.472a1.889,1.889,0,0,1,1.492-.733,1.437,1.437,0,0,1,.659.15c.1.05.15.125.1.225l-.125.248a.141.141,0,0,1-.211.062,1.027,1.027,0,0,0-.534-.161,1.824,1.824,0,0,0-1.43.87l-.5,3.544a.159.159,0,0,1-.175.161h-.261c-.086,0-.125-.075-.111-.161Z" transform="translate(-609.159 -562.781)"/>
      <path id="Path_513" data-name="Path 513" class="cls-1" d="M726.508,566.833c-.025-.111.025-.2.125-.2h.248a.13.13,0,0,1,.136.111l.5,3.744h.025l1.828-3.867a.151.151,0,0,1,.15-.111h.05c.05,0,.1.025.111.111l.783,3.867h.013l1.53-3.744a.179.179,0,0,1,.175-.111h.286c.111,0,.125.087.075.2l-2.028,4.788a.166.166,0,0,1-.15.111h-.05c-.037,0-.086-.037-.1-.111l-.8-4.005h-.012l-1.916,4.005a.166.166,0,0,1-.15.111h-.05c-.037,0-.086-.037-.1-.111Z" transform="translate(-641.495 -562.781)"/>
      <path id="Path_514" data-name="Path 514" class="cls-1" d="M785.651,571.456a.186.186,0,0,1-.175.161h-.136a.141.141,0,0,1-.15-.175l.025-.422a2.31,2.31,0,0,1-1.617.722c-1.02,0-1.728-.983-1.728-2.214a2.823,2.823,0,0,1,2.536-3.009,1.7,1.7,0,0,1,1.356.6l.1-.336a.17.17,0,0,1,.175-.136h.136a.137.137,0,0,1,.125.161Zm-.012-3.732a1.428,1.428,0,0,0-1.244-.684,2.2,2.2,0,0,0-1.978,2.413c0,.958.486,1.778,1.294,1.778a2.12,2.12,0,0,0,1.555-.895Z" transform="translate(-687.654 -562.789)"/>
      <path id="Path_515" data-name="Path 515" class="cls-1" d="M831.346,566.8a.2.2,0,0,1,.175-.161h.161a.129.129,0,0,1,.125.136l-.025.472a1.889,1.889,0,0,1,1.492-.733,1.437,1.437,0,0,1,.659.15c.1.05.15.125.1.225l-.125.248a.141.141,0,0,1-.211.062,1.027,1.027,0,0,0-.534-.161,1.824,1.824,0,0,0-1.43.87l-.5,3.544a.159.159,0,0,1-.175.161H830.8c-.086,0-.125-.075-.111-.161Z" transform="translate(-728.35 -562.781)"/>
      <path id="Path_516" data-name="Path 516" class="cls-1" d="M870.98,548.436a1.784,1.784,0,0,1,1.269.5l.559-3.942c.025-.125.063-.161.161-.161h.236a.137.137,0,0,1,.125.161l-1.169,8.383a.185.185,0,0,1-.175.161h-.136a.141.141,0,0,1-.15-.175l.025-.422a2.31,2.31,0,0,1-1.617.722c-1.02,0-1.728-.983-1.728-2.214A2.79,2.79,0,0,1,870.98,548.436Zm.8,3.819.4-2.736a1.629,1.629,0,0,0-1.219-.559,2.252,2.252,0,0,0-2.027,2.45c0,.958.486,1.741,1.294,1.741A2.125,2.125,0,0,0,871.776,552.255Z" transform="translate(-759.776 -544.707)"/>
    </g>
    <g id="Group_132" data-name="Group 132">
      <path id="Path_517" data-name="Path 517" class="cls-2" d="M122.36,117.47v10.2h18.876v49.315H152.46V127.674h7.45l-3.746-10.2Z" transform="translate(-122.36 -111.304)"/>
      <path id="Path_518" data-name="Path 518" class="cls-1" d="M393.118,117.47h-7.312l-14.453,42.938L359.719,124.8l-2.4-7.328H344.74l3.746,10.2,1.1,2.99,17.007,46.324h9.522l7.228-18.535,6.207-18.961,6.292,18.79,7.4,18.706h9.522l5.725-15.9V127.311L408,160.408Z" transform="translate(-307.753 -111.304)"/>
      <path id="Path_519" data-name="Path 519" class="cls-3" d="M851.857,86.053,849.4,83.662l-3.35-3.262v6.25H806.1v59.434h11.224V124.062h22.133V113.69H817.324V97.448h28.726v5.567l2.646-2.576,3.162-3.077,5.808-5.655Z" transform="translate(-692.378 -80.4)"/>
    </g>
    <path id="Path_520" data-name="Path 520" class="cls-4" d="M913.321,91.707,901.705,80.4v6.25H872.86l.12,10.8h28.726v5.567Z" transform="translate(-748.034 -80.4)"/>
  </g>
</svg>
